<svg width="30" height="33" viewBox="0 0 30 33" fill="none" xmlns="http://www.w3.org/2000/svg">
<path d="M21.7436 32.1107C23.1445 32.1107 24.2802 30.9267 24.2802 29.4662C24.2802 28.0057 23.1445 26.8218 21.7436 26.8218C20.3427 26.8218 19.207 28.0057 19.207 29.4662C19.207 30.9267 20.3427 32.1107 21.7436 32.1107Z" fill="white"/>
<path d="M10.146 32.1107C11.5469 32.1107 12.6825 30.9267 12.6825 29.4662C12.6825 28.0057 11.5469 26.8218 10.146 26.8218C8.74504 26.8218 7.60938 28.0057 7.60938 29.4662C7.60938 30.9267 8.74504 32.1107 10.146 32.1107Z" fill="white"/>
<path d="M5.20361 4.06491L4.91371 7.76715C4.85573 8.47738 5.39204 9.06671 6.07329 9.06671H28.2647C28.8735 9.06671 29.3808 8.58315 29.4243 7.94848C29.6127 5.2738 27.6559 3.09779 25.0904 3.09779H7.27635C7.13141 2.4329 6.84151 1.79823 6.39218 1.26934C5.66744 0.468447 4.65281 0 3.60919 0H1.0871C0.492821 0 0 0.51378 0 1.13334C0 1.7529 0.492821 2.26668 1.0871 2.26668H3.60919C4.05852 2.26668 4.47887 2.46312 4.78326 2.79557C5.08765 3.14313 5.2326 3.59646 5.20361 4.06491Z" fill="white"/>
<path d="M27.9192 11.3335H5.68424C5.07546 11.3335 4.58264 11.8171 4.52466 12.4366L4.00285 19.01C3.79993 21.594 5.74222 23.8002 8.22082 23.8002H24.339C26.5132 23.8002 28.4265 21.9416 28.5859 19.6749L29.0642 12.6179C29.1222 11.9228 28.6004 11.3335 27.9192 11.3335Z" fill="white"/>
</svg>
