<svg width="11" height="10" viewBox="0 0 11 10" fill="none" xmlns="http://www.w3.org/2000/svg">
<path d="M4.55299 0.301084C4.72707 -0.100356 5.29637 -0.100356 5.47045 0.301084L6.52362 2.7298C6.59607 2.89688 6.75363 3.01135 6.93492 3.02862L9.57021 3.27974C10.0058 3.32124 10.1817 3.86268 9.85372 4.15229L7.86933 5.90443C7.73281 6.02497 7.67263 6.21019 7.71222 6.38794L8.28775 8.97185C8.38288 9.39895 7.92231 9.73357 7.54551 9.51112L5.26591 8.16529C5.1091 8.07271 4.91434 8.07271 4.75752 8.16529L2.47792 9.51112C2.10113 9.73357 1.64056 9.39895 1.73569 8.97185L2.31121 6.38794C2.35081 6.21019 2.29062 6.02497 2.15411 5.90443L0.169716 4.15229C-0.158283 3.86268 0.0176396 3.32124 0.453225 3.27974L3.08852 3.02862C3.26981 3.01135 3.42737 2.89688 3.49982 2.7298L4.55299 0.301084Z" fill="#FF9901"/>
</svg>
